<?xml version="1.0" standalone="no"?>
<!DOCTYPE svg PUBLIC "-//W3C//DTD SVG 20010904//EN"
 "http://www.w3.org/TR/2001/REC-SVG-20010904/DTD/svg10.dtd">
<svg version="1.0" xmlns="http://www.w3.org/2000/svg"
 width="464.000000pt" height="464.000000pt" viewBox="0 0 464.000000 464.000000"
 preserveAspectRatio="xMidYMid meet">
<metadata>
Created by potrace 1.11, written by Peter Selinger 2001-2013
</metadata>
<g transform="translate(0.000000,464.000000) scale(0.100000,-0.100000)"
fill="#000000" stroke="none">
<path d="M4349 4568 c-515 -625 -1052 -1109 -1435 -1293 -241 -115 -409 -132
-724 -72 -220 42 -608 204 -915 382 -55 32 -109 63 -120 69 -35 20 -157 99
-252 164 -51 34 -93 60 -93 57 0 -13 285 -282 435 -410 105 -90 141 -119 241
-196 338 -260 653 -434 906 -500 106 -27 270 -34 354 -14 345 81 904 669 1439
1515 54 85 112 178 130 205 45 72 87 145 81 145 -2 0 -24 -24 -47 -52z"/>
<path d="M2480 4194 c-218 -44 -363 -250 -328 -468 19 -122 112 -247 223 -302
64 -31 63 -30 145 -42 240 -34 462 163 462 408 0 258 -247 457 -502 404z"/>
<path d="M2248 2716 c-1 -2 -28 -6 -58 -10 -180 -19 -500 -104 -685 -181 -16
-7 -66 -27 -110 -45 -44 -18 -91 -37 -105 -43 -14 -6 -27 -11 -30 -12 -3 -1
-39 -17 -80 -37 -41 -19 -78 -35 -82 -37 -11 -2 -311 -157 -388 -199 -121 -67
-164 -101 -82 -66 51 22 152 54 169 54 8 0 11 5 7 12 -4 6 -3 8 3 5 11 -7 137
26 129 34 -3 2 3 5 12 5 22 1 49 7 152 34 47 12 92 24 100 25 8 2 16 4 18 5 1
2 10 3 20 5 9 1 28 5 42 8 21 6 65 13 93 16 5 1 5 7 1 14 -6 9 -5 9 8 0 8 -7
17 -11 20 -8 5 5 80 18 106 18 6 0 12 3 12 6 0 4 12 7 28 7 79 3 93 5 89 12
-3 4 23 7 56 8 167 3 347 13 358 19 7 5 10 4 6 -2 -4 -7 14 -11 51 -12 31 0
84 -6 117 -12 33 -6 74 -12 90 -14 17 -1 41 -7 55 -13 14 -5 58 -22 98 -37 75
-28 190 -98 254 -154 23 -20 42 -30 50 -25 7 4 10 3 5 -1 -10 -11 73 -96 86
-88 6 3 7 2 4 -3 -7 -12 82 -110 95 -106 5 1 7 -1 4 -6 -3 -5 9 -27 27 -48
126 -149 324 -445 448 -669 15 -27 43 -79 63 -115 59 -106 229 -447 276 -555
38 -88 71 -148 56 -105 -3 8 -14 49 -26 90 -71 251 -212 687 -250 775 -5 11
-27 69 -50 129 -191 508 -425 923 -636 1132 -135 134 -261 182 -491 189 -72 2
-133 2 -135 1z"/>
</g>
</svg>
